<?xml version="1.0" standalone="no"?>
<!DOCTYPE svg PUBLIC "-//W3C//DTD SVG 20010904//EN"
 "http://www.w3.org/TR/2001/REC-SVG-20010904/DTD/svg10.dtd">
<svg version="1.0" xmlns="http://www.w3.org/2000/svg"
 width="62.000000pt" height="61.000000pt" viewBox="0 0 62.000000 61.000000"
 preserveAspectRatio="xMidYMid meet">

<g transform="translate(0.000000,61.000000) scale(0.100000,-0.100000)"
fill="#000000" stroke="none">
<path d="M10 246 c0 -7 18 -26 41 -41 47 -33 93 -89 114 -138 10 -23 24 -38
45 -45 37 -13 38 -5 9 58 -29 64 -64 106 -112 134 -64 37 -97 48 -97 32z"/>
<path d="M527 229 c-58 -30 -114 -94 -137 -155 -11 -30 -20 -57 -20 -59 0 -2
14 1 30 7 21 7 38 24 52 51 31 62 56 92 104 127 69 49 48 70 -29 29z"/>
<path d="M526 129 c-53 -59 -62 -89 -13 -41 30 30 74 92 63 92 -2 0 -25 -23
-50 -51z"/>
<path d="M56 140 c21 -35 62 -76 69 -69 8 8 -44 78 -66 90 -21 11 -21 11 -3
-21z"/>
</g>
</svg>
